<?xml version="1.0" encoding="UTF-8" standalone="no"?>
<!-- Created with Inkscape (http://www.inkscape.org/) -->

<svg
   width="112.00024mm"
   height="112mm"
   viewBox="0 0 112.00024 112"
   version="1.1"
   id="svg5"
   xml:space="preserve"
   inkscape:version="1.2.2 (b0a8486541, 2022-12-01)"
   sodipodi:docname="Logo_versuche.svg"
   xmlns:inkscape="http://www.inkscape.org/namespaces/inkscape"
   xmlns:sodipodi="http://sodipodi.sourceforge.net/DTD/sodipodi-0.dtd"
   xmlns="http://www.w3.org/2000/svg"
   xmlns:svg="http://www.w3.org/2000/svg"><sodipodi:namedview
     id="namedview7"
     pagecolor="#ffffff"
     bordercolor="#666666"
     borderopacity="1.0"
     inkscape:showpageshadow="2"
     inkscape:pageopacity="0.0"
     inkscape:pagecheckerboard="0"
     inkscape:deskcolor="#d1d1d1"
     inkscape:document-units="mm"
     showgrid="false"
     inkscape:zoom="0.35355339"
     inkscape:cx="13794.239"
     inkscape:cy="6594.4778"
     inkscape:window-width="1920"
     inkscape:window-height="1008"
     inkscape:window-x="1920"
     inkscape:window-y="0"
     inkscape:window-maximized="0"
     inkscape:current-layer="layer1"
     showguides="true" /><defs
     id="defs2"><style
       id="style83745">.cls-1{fill-rule:evenodd;}</style><style
       id="style113731">.cls-1{fill-rule:evenodd;}</style></defs><g
     inkscape:label="Ebene 1"
     inkscape:groupmode="layer"
     id="layer1"
     transform="translate(-3686.5919,-1753.8957)"><g
       id="g6016"
       transform="translate(-19.012598)"><rect
         style="opacity:0.00100002;fill:#ffffff;fill-opacity:1;stroke:none;stroke-width:3.51033;stroke-dasharray:none"
         id="rect26435-7-8-0-1-7-1-1-5-5-3-1-33-9"
         width="112"
         height="112"
         x="3705.6047"
         y="1753.8958"
         inkscape:export-filename="g23468-2.png"
         inkscape:export-xdpi="7.27"
         inkscape:export-ydpi="7.27" /><g
         id="g5964"
         transform="translate(-0.26501366,-1.274448)"><path
           style="fill:#ffffff;fill-opacity:1;stroke:#000000;stroke-width:4;stroke-linecap:butt;stroke-linejoin:miter;stroke-dasharray:none;stroke-opacity:1"
           d="m 3721.1326,1771.7402 41.6078,-14.4495 40.9115,14.6236 0.1741,44.0452 c -0.3709,22.5985 -23.3111,39.2654 -41.5208,48.7456 -33.5979,-17.1524 -42.1708,-36.5239 -42.3913,-49.9643 z"
           id="path8808-4-6-5-3-1-8-2-8-3-1-6-96"
           sodipodi:nodetypes="ccccccc" /><path
           style="fill:#1f8fb5;fill-opacity:1;stroke-width:0.128452"
           id="path8688-45-6-9-1-0-9-2-8-9-5-4-2"
           sodipodi:type="arc"
           sodipodi:cx="3762.252"
           sodipodi:cy="1774.8569"
           sodipodi:rx="5.4643841"
           sodipodi:ry="5.2864027"
           sodipodi:start="0"
           sodipodi:end="6.281029"
           sodipodi:open="true"
           sodipodi:arc-type="chord"
           d="m 3767.7163,1774.8569 a 5.4643841,5.2864027 0 0 1 -5.4614,5.2864 5.4643841,5.2864027 0 0 1 -5.4673,-5.2807 5.4643841,5.2864027 0 0 1 5.4555,-5.2921 5.4643841,5.2864027 0 0 1 5.4732,5.275 z" /><path
           style="fill:#1f8fb5;fill-opacity:1;stroke-width:0.104987"
           id="path8688-4-2-4-6-4-2-5-7-6-1-9-1-1"
           sodipodi:type="arc"
           sodipodi:cx="3744.8494"
           sodipodi:cy="1781.046"
           sodipodi:rx="4.5536532"
           sodipodi:ry="4.2377353"
           sodipodi:start="0"
           sodipodi:end="6.281029"
           sodipodi:open="true"
           sodipodi:arc-type="chord"
           d="m 3749.403,1781.046 a 4.5536532,4.2377353 0 0 1 -4.5512,4.2378 4.5536532,4.2377353 0 0 1 -4.5561,-4.2332 4.5536532,4.2377353 0 0 1 4.5463,-4.2423 4.5536532,4.2377353 0 0 1 4.561,4.2286 z" /><path
           style="fill:#1f8fb5;fill-opacity:1;stroke-width:0.105609"
           id="path8688-4-7-5-9-2-6-2-0-7-8-2-4-5-7"
           sodipodi:type="arc"
           sodipodi:cx="3779.6482"
           sodipodi:cy="1781.0944"
           sodipodi:rx="4.4601092"
           sodipodi:ry="4.3780518"
           sodipodi:start="0"
           sodipodi:end="6.281029"
           sodipodi:open="true"
           sodipodi:arc-type="chord"
           d="m 3784.1083,1781.0944 a 4.4601092,4.3780518 0 0 1 -4.4577,4.378 4.4601092,4.3780518 0 0 1 -4.4625,-4.3733 4.4601092,4.3780518 0 0 1 4.4529,-4.3828 4.4601092,4.3780518 0 0 1 4.4673,4.3686 z" /><path
           style="fill:none;stroke:#000000;stroke-width:4;stroke-linecap:butt;stroke-linejoin:miter;stroke-dasharray:none;stroke-opacity:1"
           d="m 3720.5922,1801.6181 h 83.3437"
           id="path10313-7-5-1-9-9-2-9-2-6-4-0-85" /><path
           id="path10367-43-0-7-4-7-7-1-0-2-2-7-7"
           style="fill:#1f8fb5;fill-opacity:1;stroke-width:4.30101;stroke-dasharray:none"
           d="m 3744.9447,1787.0464 a 7.5,3.8820899 0 0 0 -7.4828,3.8091 h -0.01 v 0.077 5.4389 h 15.0002 v -5.443 -0.01 -0.065 h -0.01 a 7.5,3.8820899 0 0 0 -7.5076,-3.8091 z" /><path
           id="path10367-4-0-4-8-2-5-2-4-2-6-0-6-4"
           style="fill:#1f8fb5;fill-opacity:1;stroke-width:5.65071;stroke-dasharray:none"
           d="m 3762.4077,1781.8612 a 10,5.0256577 0 0 0 -9.9818,4.9982 v 0 0.033 9.3684 h 20.0003 v -9.401 0 a 10,5.0256577 0 0 0 -10.0149,-4.9982 z" /><path
           id="path10367-5-7-8-5-2-6-8-0-4-6-0-6-1"
           style="fill:#1f8fb5;fill-opacity:1;stroke-width:4.30101;stroke-dasharray:none"
           d="m 3779.8669,1787.0612 a 7.5,3.8820899 0 0 0 -7.4827,3.809 v 0 0.077 5.439 h 15.0001 v -5.4431 -0.01 -0.065 h -0.01 a 7.5,3.8820899 0 0 0 -7.5075,-3.8091 z" /><path
           style="fill:#1f8fb5;fill-opacity:1;stroke:none;stroke-width:0.264583px;stroke-linecap:butt;stroke-linejoin:miter;stroke-opacity:1"
           d="m 3726.6776,1806.8437 16.0734,-0.1323 c 1.7027,14.5867 9.3594,17.7354 17.661,19.6453 l -0.066,30.2286 c 0,0 -8.9959,-4.6302 -9.1943,-5.0271 -0.1984,-0.3968 0.1323,-20.5713 0.1323,-20.5713 -6.8077,-4.1235 -14.1567,-7.2417 -23.4156,-6.813 -1.8609,-5.1113 -1.3116,-11.2099 -1.1907,-17.3302 z"
           id="path20055-8-7-7-6-4-1-4-9-5-0-8-8"
           sodipodi:nodetypes="ccccsccc" /><path
           style="fill:#1f8fb5;fill-opacity:1;stroke:none;stroke-width:0.264583px;stroke-linecap:butt;stroke-linejoin:miter;stroke-opacity:1"
           d="m 3797.9715,1806.8156 -16.0735,-0.1323 c -1.7026,14.5868 -9.3593,17.7355 -17.6609,19.6453 l 0.066,30.2287 c 0,0 8.9958,-4.6302 9.1943,-5.0271 0.1984,-0.3969 -0.1323,-20.5713 -0.1323,-20.5713 6.8077,-4.1235 14.1567,-7.2418 23.4156,-6.8131 1.8609,-5.1113 1.3116,-11.2099 1.1907,-17.3302 z"
           id="path20055-9-6-1-4-4-6-7-7-8-0-0-1-5"
           sodipodi:nodetypes="ccccsccc" /><path
           style="fill:#1f8fb5;fill-opacity:1;stroke:none;stroke-width:0.264583px;stroke-linecap:butt;stroke-linejoin:miter;stroke-opacity:1"
           d="m 3729.2573,1827.4481 c 6.2844,-0.146 12.489,1.4352 18.6531,5.6885 v 15.875 c -6.8378,-5.2005 -16.5249,-14.3492 -18.6531,-21.5635 z"
           id="path21800-8-7-1-1-3-7-8-1-5-8-6-9"
           sodipodi:nodetypes="cccc" /><path
           style="fill:#1f8fb5;fill-opacity:1;stroke:none;stroke-width:0.264583px;stroke-linecap:butt;stroke-linejoin:miter;stroke-opacity:1"
           d="m 3795.5668,1827.5783 c -6.2844,-0.1459 -12.489,1.4353 -18.6531,5.6886 v 15.875 c 6.8378,-5.2006 16.5249,-14.3493 18.6531,-21.5636 z"
           id="path21800-7-8-2-8-2-7-9-7-5-4-1-8-7"
           sodipodi:nodetypes="cccc" /><path
           style="fill:#ffffff;fill-opacity:1;stroke-width:3.96912;stroke-dasharray:none"
           id="path10311-4-7-5-8-9-7-6-6-3-7-2-5"
           sodipodi:type="arc"
           sodipodi:cx="3762.3464"
           sodipodi:cy="1807.1244"
           sodipodi:rx="19"
           sodipodi:ry="19"
           sodipodi:start="0"
           sodipodi:end="6.281029"
           sodipodi:open="true"
           sodipodi:arc-type="chord"
           d="m 3781.3464,1807.1244 a 19,19 0 0 1 -18.9897,19 19,19 0 0 1 -19.0103,-18.9795 19,19 0 0 1 18.9693,-19.0205 19,19 0 0 1 19.0307,18.959 z" /><path
           style="fill:#ffffff;fill-opacity:1;stroke:none;stroke-width:4.15817;stroke-dasharray:none"
           id="path23528-2-9-8-7-9-8-6-9-1-5-3"
           sodipodi:type="arc"
           sodipodi:cx="3762.4219"
           sodipodi:cy="1806.5667"
           sodipodi:rx="14"
           sodipodi:ry="14"
           sodipodi:start="0"
           sodipodi:end="6.281029"
           sodipodi:open="true"
           sodipodi:arc-type="chord"
           d="m 3776.4219,1806.5667 a 14,14 0 0 1 -13.9925,13.9999 14,14 0 0 1 -14.0075,-13.9849 14,14 0 0 1 13.9773,-14.015 14,14 0 0 1 14.0226,13.9698 z" /><path
           style="fill:#1f8fb5;fill-opacity:1;stroke:none;stroke-width:4.15817;stroke-dasharray:none"
           id="path23528-4-7-3-3-2-2-2-61-7-9-3-8"
           sodipodi:type="arc"
           sodipodi:cx="3762.3464"
           sodipodi:cy="1807.1244"
           sodipodi:rx="14"
           sodipodi:ry="14"
           sodipodi:start="0"
           sodipodi:end="6.281029"
           sodipodi:open="true"
           sodipodi:arc-type="chord"
           d="m 3776.3464,1807.1244 a 14,14 0 0 1 -13.9924,14 14,14 0 0 1 -14.0076,-13.9849 14,14 0 0 1 13.9774,-14.0151 14,14 0 0 1 14.0226,13.9698 z" /><path
           d="m 3752.5286,1802.0177 c -0.8847,0.4359 -1.4783,1.3302 -1.4639,2.2053 0,0.2929 0.046,0.4951 0.1713,0.8404 0.1071,0.2874 0.1255,0.3321 0.2207,0.4726 0.42,0.6216 1.0197,1.0272 1.7338,1.1686 0.3606,0.07 0.6633,0.057 1.8096,-0.084 1.0796,-0.1309 1.6383,-0.1543 2.2825,-0.094 0.6123,0.058 1.2728,0.2193 1.8218,0.4442 0.091,0.039 0.1685,0.074 0.1708,0.08 0,0.01 -0.029,0.043 -0.068,0.082 -0.8635,0.8408 -1.7399,1.3401 -3.1198,1.7766 -0.8511,0.269 -1.6147,0.536 -1.7768,0.6222 -0.9709,0.5078 -1.5425,1.6518 -1.3604,2.7204 0.039,0.2362 0.193,0.6613 0.298,0.8314 0.3955,0.6304 1.0892,1.0462 1.8963,1.1392 0.6527,0.073 1.3922,-0.102 1.9195,-0.4566 0.4121,-0.2762 0.7727,-0.7049 0.951,-1.1285 0.2243,-0.5359 0.2296,-1.0203 0.019,-1.6713 -0.1071,-0.3315 -0.173,-0.4494 -0.3762,-0.6687 -0.2648,-0.2891 -0.2687,-0.3761 -0.024,-0.5565 0.151,-0.1118 0.4262,-0.2518 1.073,-0.5464 0.9754,-0.4448 1.6038,-0.7642 2.2668,-1.1513 l 0.2462,-0.1443 0.8562,0.112 c 5.3215,0.6906 8.1096,1.0468 8.2418,1.0561 0.2673,0.016 0.6225,-4e-4 0.8969,-0.041 0.2811,-0.043 0.4105,-0.077 0.7151,-0.1869 0.3469,-0.1254 0.5113,-0.2107 0.7604,-0.3928 0.3334,-0.244 0.5386,-0.471 0.8142,-0.9003 0.1047,-0.1649 0.1378,-0.2303 0.1182,-0.2342 -0.016,0 -1.6111,-0.2387 -3.5477,-0.5217 -1.9355,-0.2852 -4.0322,-0.5933 -4.6585,-0.6854 -1.0799,-0.16 -1.135,-0.1696 -1.0847,-0.1988 0.096,-0.06 7.9431,-5.101 7.9696,-5.1198 0.019,-0.015 0.017,-0.038 0,-0.1045 -0.029,-0.078 -0.043,-0.093 -0.1639,-0.1728 -0.7124,-0.4679 -1.4933,-0.6054 -2.3886,-0.4178 -0.2376,0.051 -0.7621,0.2351 -0.9879,0.3494 -0.086,0.042 -1.6434,0.9958 -3.4601,2.1187 -1.8167,1.123 -3.5644,2.2025 -3.8837,2.399 -0.3193,0.1966 -0.5996,0.3789 -0.6245,0.4064 l -0.043,0.049 -0.4823,-0.05 c -0.7647,-0.083 -1.3916,-0.1155 -2.311,-0.1219 -1.2538,-0.01 -1.4743,-0.023 -1.6549,-0.105 -0.1341,-0.06 -0.1528,-0.173 -0.066,-0.4234 0.1206,-0.3454 0.1334,-0.5731 0.06,-1.0161 -0.039,-0.2307 -0.1726,-0.6299 -0.2699,-0.7973 -0.4511,-0.789 -1.4642,-1.2734 -2.4517,-1.1723 -0.3321,0.034 -0.7547,0.1532 -1.0366,0.2903 z m 0.8537,0.833 c 0.3613,-0.075 0.6309,-0.053 0.9332,0.075 0.4724,0.2012 0.8142,0.6116 0.9131,1.0989 0.072,0.3515 0.036,0.6592 -0.1095,0.9455 -0.1948,0.3835 -0.6389,0.6676 -1.1193,0.7142 -0.6137,0.06 -1.2708,-0.2347 -1.6041,-0.7182 -0.051,-0.074 -0.091,-0.1604 -0.1412,-0.2988 -0.064,-0.1759 -0.072,-0.2118 -0.073,-0.3641 -0.012,-0.4501 0.082,-0.6984 0.3576,-0.982 0.2369,-0.2459 0.519,-0.4032 0.8427,-0.4705 z m 2.0848,7.3785 c 0.2761,-0.041 0.573,7e-4 0.8214,0.1173 0.1352,0.063 0.196,0.104 0.3004,0.2044 0.192,0.1847 0.2485,0.2748 0.3464,0.5451 0.087,0.25 0.1132,0.4141 0.096,0.6484 -0.033,0.4539 -0.2815,0.8864 -0.6612,1.1507 -0.1776,0.125 -0.511,0.2419 -0.7467,0.2622 -0.3214,0.028 -0.6213,-0.022 -0.8841,-0.148 -0.2917,-0.1395 -0.4686,-0.3333 -0.6168,-0.6719 -0.2937,-0.6746 0.051,-1.4968 0.8047,-1.9301 0.096,-0.055 0.4136,-0.16 0.5395,-0.1785 z"
           id="path24082-8-9-4-8-0-8-7-0-7-8"
           style="fill:#ffffff;fill-opacity:1;stroke:none;stroke-width:0.00173181" /></g></g></g><style
     type="text/css"
     id="style82399"><![CDATA[
	.st0{fill:#4CAF50;}
	.st1{fill:#2196F3;}
	.st2{fill:#F44336;}
	.st3{fill:#262626;}
	.st4{fill:#FFD54F;}
	.st5{fill-rule:evenodd;clip-rule:evenodd;fill:#262626;}
	.st6{fill-rule:evenodd;clip-rule:evenodd;fill:#FFFFFF;}
]]></style></svg>
