<?xml version="1.0" encoding="UTF-8" standalone="no"?>
<!-- Created with Inkscape (http://www.inkscape.org/) -->

<svg
   width="112.00024mm"
   height="112mm"
   viewBox="0 0 112.00024 112"
   version="1.1"
   id="svg5"
   xml:space="preserve"
   inkscape:version="1.2.2 (b0a8486541, 2022-12-01)"
   sodipodi:docname="Logo_versuche.svg"
   xmlns:inkscape="http://www.inkscape.org/namespaces/inkscape"
   xmlns:sodipodi="http://sodipodi.sourceforge.net/DTD/sodipodi-0.dtd"
   xmlns="http://www.w3.org/2000/svg"
   xmlns:svg="http://www.w3.org/2000/svg"><sodipodi:namedview
     id="namedview7"
     pagecolor="#ffffff"
     bordercolor="#666666"
     borderopacity="1.0"
     inkscape:showpageshadow="2"
     inkscape:pageopacity="0.0"
     inkscape:pagecheckerboard="0"
     inkscape:deskcolor="#d1d1d1"
     inkscape:document-units="mm"
     showgrid="false"
     inkscape:zoom="0.35355339"
     inkscape:cx="13794.239"
     inkscape:cy="6594.4778"
     inkscape:window-width="1920"
     inkscape:window-height="1008"
     inkscape:window-x="1920"
     inkscape:window-y="0"
     inkscape:window-maximized="0"
     inkscape:current-layer="layer1"
     showguides="true" /><defs
     id="defs2"><style
       id="style83745">.cls-1{fill-rule:evenodd;}</style><style
       id="style113731">.cls-1{fill-rule:evenodd;}</style></defs><g
     inkscape:label="Ebene 1"
     inkscape:groupmode="layer"
     id="layer1"
     transform="translate(-3937.3258,-1753.8957)"><g
       id="g6090"
       transform="translate(0,-1.2744141)"><rect
         style="opacity:0.00100002;fill:#ffffff;fill-opacity:1;stroke:none;stroke-width:3.51033;stroke-dasharray:none"
         id="rect26435-2-0-0-8-2-3-2-0-2-3-1-6-1"
         width="112"
         height="112"
         x="3937.3259"
         y="1755.1702"
         inkscape:export-filename="g23468-2.png"
         inkscape:export-xdpi="7.27"
         inkscape:export-ydpi="7.27" /><g
         id="g6070"
         transform="translate(7.7746826e-5)"><path
           style="fill:#ffffff;fill-opacity:1;stroke:#000000;stroke-width:4;stroke-linecap:butt;stroke-linejoin:miter;stroke-dasharray:none;stroke-opacity:1"
           d="m 3952.5887,1771.7403 41.6078,-14.4496 40.9115,14.6237 0.1741,44.0451 c -0.3709,22.5986 -23.3111,39.2655 -41.5208,48.7457 -33.5979,-17.1525 -42.1708,-36.524 -42.3913,-49.9643 z"
           id="path8808-4-63-9-3-0-8-8-6-9-3-3-8-0"
           sodipodi:nodetypes="ccccccc" /><path
           style="fill:#6d4cc2;fill-opacity:1;stroke-width:0.128452"
           id="path8688-45-8-6-7-3-7-0-9-9-9-9-6-6"
           sodipodi:type="arc"
           sodipodi:cx="3993.708"
           sodipodi:cy="1774.8569"
           sodipodi:rx="5.4643841"
           sodipodi:ry="5.2864027"
           sodipodi:start="0"
           sodipodi:end="6.281029"
           sodipodi:open="true"
           sodipodi:arc-type="chord"
           d="m 3999.1724,1774.8569 a 5.4643841,5.2864027 0 0 1 -5.4614,5.2864 5.4643841,5.2864027 0 0 1 -5.4674,-5.2807 5.4643841,5.2864027 0 0 1 5.4556,-5.2921 5.4643841,5.2864027 0 0 1 5.4732,5.275 z" /><path
           style="fill:#6d4cc2;fill-opacity:1;stroke-width:0.104987"
           id="path8688-4-2-5-0-1-1-6-9-4-6-6-6-3-46"
           sodipodi:type="arc"
           sodipodi:cx="3976.3054"
           sodipodi:cy="1781.0461"
           sodipodi:rx="4.5536532"
           sodipodi:ry="4.2377353"
           sodipodi:start="0"
           sodipodi:end="6.281029"
           sodipodi:open="true"
           sodipodi:arc-type="chord"
           d="m 3980.8591,1781.0461 a 4.5536532,4.2377353 0 0 1 -4.5512,4.2378 4.5536532,4.2377353 0 0 1 -4.5561,-4.2332 4.5536532,4.2377353 0 0 1 4.5463,-4.2423 4.5536532,4.2377353 0 0 1 4.561,4.2286 z" /><path
           style="fill:#6d4cc2;fill-opacity:1;stroke-width:0.105609"
           id="path8688-4-7-5-6-4-3-0-5-6-8-7-4-8-2-2"
           sodipodi:type="arc"
           sodipodi:cx="4011.104"
           sodipodi:cy="1781.0944"
           sodipodi:rx="4.4601092"
           sodipodi:ry="4.3780518"
           sodipodi:start="0"
           sodipodi:end="6.281029"
           sodipodi:open="true"
           sodipodi:arc-type="chord"
           d="m 4015.5641,1781.0944 a 4.4601092,4.3780518 0 0 1 -4.4577,4.378 4.4601092,4.3780518 0 0 1 -4.4625,-4.3733 4.4601092,4.3780518 0 0 1 4.4529,-4.3828 4.4601092,4.3780518 0 0 1 4.4673,4.3686 z" /><path
           style="fill:none;stroke:#000000;stroke-width:4;stroke-linecap:butt;stroke-linejoin:miter;stroke-dasharray:none;stroke-opacity:1"
           d="m 3952.0483,1801.6182 h 83.3437"
           id="path10313-7-1-10-8-3-1-7-4-9-6-5-0-5" /><path
           id="path10367-43-15-4-0-6-1-2-0-0-7-1-3-8"
           style="fill:#6d4cc2;fill-opacity:1;stroke-width:4.30101;stroke-dasharray:none"
           d="m 3976.4008,1787.0465 a 7.5,3.8820899 0 0 0 -7.4828,3.8091 v 0 0.077 5.4389 h 15.0002 v -5.4431 -0.01 -0.065 h -0.01 a 7.5,3.8820899 0 0 0 -7.5076,-3.809 z" /><path
           id="path10367-4-0-9-8-9-7-4-1-8-5-4-8-1-6"
           style="fill:#6d4cc2;fill-opacity:1;stroke-width:5.65071;stroke-dasharray:none"
           d="m 3993.8638,1781.8613 a 10,5.0256577 0 0 0 -9.9818,4.9981 v 0 0.033 9.3684 h 20.0003 v -9.401 0 a 10,5.0256577 0 0 0 -10.0149,-4.9981 z" /><path
           id="path10367-5-7-84-7-7-3-8-4-4-9-6-5-9-28"
           style="fill:#6d4cc2;fill-opacity:1;stroke-width:4.30101;stroke-dasharray:none"
           d="m 4011.323,1787.0612 a 7.5,3.8820899 0 0 0 -7.4827,3.8091 v 0 0.077 5.4389 h 15.0001 v -5.443 -0.01 -0.065 0 a 7.5,3.8820899 0 0 0 -7.5075,-3.8091 z" /><path
           style="fill:#6d4cc2;fill-opacity:1;stroke:none;stroke-width:0.264583px;stroke-linecap:butt;stroke-linejoin:miter;stroke-opacity:1"
           d="m 3958.1337,1806.8437 16.0734,-0.1323 c 1.7027,14.5868 9.3594,17.7355 17.661,19.6454 l -0.066,30.2286 c 0,0 -8.9959,-4.6302 -9.1943,-5.0271 -0.1984,-0.3969 0.1323,-20.5713 0.1323,-20.5713 -6.8077,-4.1235 -14.1567,-7.2417 -23.4156,-6.8131 -1.8609,-5.1113 -1.3116,-11.2099 -1.1907,-17.3302 z"
           id="path20055-8-8-0-9-2-5-4-4-7-2-2-2-4"
           sodipodi:nodetypes="ccccsccc" /><path
           style="fill:#6d4cc2;fill-opacity:1;stroke:none;stroke-width:0.264583px;stroke-linecap:butt;stroke-linejoin:miter;stroke-opacity:1"
           d="m 4029.4276,1806.8157 -16.0735,-0.1323 c -1.7026,14.5867 -9.3593,17.7354 -17.6609,19.6453 l 0.066,30.2286 c 0,0 8.9958,-4.6302 9.1943,-5.027 0.1984,-0.3969 -0.1323,-20.5714 -0.1323,-20.5714 6.8077,-4.1235 14.1567,-7.2417 23.4156,-6.813 1.8609,-5.1113 1.3116,-11.2099 1.1907,-17.3302 z"
           id="path20055-9-6-10-8-9-2-7-8-8-6-9-9-6-7"
           sodipodi:nodetypes="ccccsccc" /><path
           style="fill:#6d4cc2;fill-opacity:1;stroke:none;stroke-width:0.264583px;stroke-linecap:butt;stroke-linejoin:miter;stroke-opacity:1"
           d="m 3960.7134,1827.4482 c 6.2844,-0.146 12.4889,1.4352 18.6531,5.6885 v 15.875 c -6.8378,-5.2005 -16.5249,-14.3492 -18.6531,-21.5635 z"
           id="path21800-8-3-6-3-1-6-4-2-6-9-0-6-24"
           sodipodi:nodetypes="cccc" /><path
           style="fill:#6d4cc2;fill-opacity:1;stroke:none;stroke-width:0.264583px;stroke-linecap:butt;stroke-linejoin:miter;stroke-opacity:1"
           d="m 4027.0229,1827.5784 c -6.2844,-0.146 -12.489,1.4352 -18.6531,5.6885 v 15.875 c 6.8378,-5.2005 16.5249,-14.3492 18.6531,-21.5635 z"
           id="path21800-7-8-0-2-2-5-6-9-4-8-6-7-7-0"
           sodipodi:nodetypes="cccc" /><path
           style="fill:#ffffff;fill-opacity:1;stroke-width:3.96912;stroke-dasharray:none"
           id="path10311-4-4-4-4-3-9-8-2-1-7-60-4-6"
           sodipodi:type="arc"
           sodipodi:cx="3993.8022"
           sodipodi:cy="1807.1244"
           sodipodi:rx="19"
           sodipodi:ry="19"
           sodipodi:start="0"
           sodipodi:end="6.281029"
           sodipodi:open="true"
           sodipodi:arc-type="chord"
           d="m 4012.8022,1807.1244 a 19,19 0 0 1 -18.9897,19 19,19 0 0 1 -19.0102,-18.9795 19,19 0 0 1 18.9692,-19.0205 19,19 0 0 1 19.0307,18.959 z" /><path
           style="fill:#ffffff;fill-opacity:1;stroke:none;stroke-width:0.264583px;stroke-linecap:butt;stroke-linejoin:miter;stroke-opacity:1"
           d="m 3989.1804,1801.0945 v 10.9447 l 9.3949,-5.4241 z"
           id="path23530-4-9-7-8-1-4-7-8-8-07-1-2" /><path
           style="fill:#6d4cc2;fill-opacity:1;stroke:none;stroke-width:4.15817;stroke-dasharray:none"
           id="path23528-4-7-3-3-2-2-2-6-9-5-3-3-9"
           sodipodi:type="arc"
           sodipodi:cx="3993.8022"
           sodipodi:cy="1807.1244"
           sodipodi:rx="14"
           sodipodi:ry="14"
           sodipodi:start="0"
           sodipodi:end="6.281029"
           sodipodi:open="true"
           sodipodi:arc-type="chord"
           d="m 4007.8022,1807.1244 a 14,14 0 0 1 -13.9924,14 14,14 0 0 1 -14.0075,-13.9849 14,14 0 0 1 13.9773,-14.0151 14,14 0 0 1 14.0226,13.9698 z" /><path
           class="cls-1"
           d="m 4003.526,1805.0811 0.5379,0.5379 a 0.35863484,0.35863484 0 0 1 0,0.5147 l -0.4339,0.4339 a 2.8977695,2.8977695 0 0 1 0.2689,0.7173 h 0.5614 a 0.35863484,0.35863484 0 0 1 0.3586,0.3586 v 0.7711 a 0.35863484,0.35863484 0 0 1 -0.3586,0.3586 h -0.6133 a 2.8798378,2.8798378 0 0 1 -0.3174,0.6958 l 0.3981,0.3963 a 0.35863484,0.35863484 0 0 1 0,0.5146 l -0.538,0.538 a 0.35863484,0.35863484 0 0 1 -0.5165,0.01 l -0.4339,-0.434 a 2.8027313,2.8027313 0 0 1 -0.7172,0.269 v 0.5613 a 0.35863484,0.35863484 0 0 1 -0.3587,0.3586 h -0.7639 a 0.35863484,0.35863484 0 0 1 -0.3586,-0.3586 v -0.6204 a 2.9497715,2.9497715 0 0 1 -0.7011,-0.3138 l -0.3963,0.3944 a 0.35863484,0.35863484 0 0 1 -0.5147,0 l -0.5379,-0.5379 a 0.35863484,0.35863484 0 0 1 0,-0.5146 l 0.434,-0.434 a 2.8278358,2.8278358 0 0 1 -0.2691,-0.7173 h -0.5612 a 0.35863484,0.35863484 0 0 1 -0.3586,-0.3586 v -0.7657 a 0.35863484,0.35863484 0 0 1 0.3586,-0.3586 h 0.6132 a 2.8798378,2.8798378 0 0 1 0.3174,-0.6958 l -0.3963,-0.4016 a 0.35863484,0.35863484 0 0 1 0,-0.5147 l 0.538,-0.5379 a 0.35863484,0.35863484 0 0 1 0.5146,0 l 0.434,0.4339 a 2.8278358,2.8278358 0 0 1 0.7173,-0.269 v -0.5612 a 0.35863484,0.35863484 0 0 1 0.3586,-0.3587 h 0.7603 a 0.35863484,0.35863484 0 0 1 0.3586,0.3587 v 0.6114 a 2.8798378,2.8798378 0 0 1 0.6958,0.3174 l 0.3963,-0.3963 a 0.35863484,0.35863484 0 0 1 0.5128,0 z m -12.8248,3.1542 a 0.39449833,0.39449833 0 0 1 -0.3587,-0.4232 0.38553246,0.38553246 0 0 1 0.3587,-0.4232 h 4.4955 a 0.3962915,0.3962915 0 0 1 0.3586,0.4232 0.38732563,0.38732563 0 0 1 -0.3586,0.4232 z m -2.9695,-1.2552 h 1.5135 a 0.13448806,0.13448806 0 0 1 0.1416,0.1416 v 1.5153 a 0.13269489,0.13269489 0 0 1 -0.1416,0.1362 h -1.5135 a 0.13269489,0.13269489 0 0 1 -0.1416,-0.1398 v -1.5171 a 0.13448806,0.13448806 0 0 1 0.1416,-0.1416 z m 0,3.7387 h 1.5135 a 0.13448806,0.13448806 0 0 1 0.1416,0.1417 v 1.5134 a 0.13448806,0.13448806 0 0 1 -0.1416,0.1417 h -1.5135 a 0.13448806,0.13448806 0 0 1 -0.1416,-0.1417 v -1.5188 a 0.13448806,0.13448806 0 0 1 0.1416,-0.1417 z m 2.9695,1.2553 a 0.39449833,0.39449833 0 0 1 -0.3587,-0.4214 0.38553246,0.38553246 0 0 1 0.3587,-0.4232 h 3.0664 a 0.39449833,0.39449833 0 0 1 0.3585,0.4232 0.38553246,0.38553246 0 0 1 -0.3585,0.4214 z m -2.5319,-6.936 a 0.24207852,0.24207852 0 0 1 -0.3246,-0.041 l -0.034,-0.029 -0.4519,-0.4645 a 0.25642391,0.25642391 0 0 1 0.044,-0.3586 0.30125327,0.30125327 0 0 1 0.3944,-0.014 l 0.2404,0.2546 0.8804,-0.8123 a 0.24925121,0.24925121 0 0 1 0.3586,0.084 0.28332153,0.28332153 0 0 1 -0.029,0.3945 l -1.0759,0.9899 z m 2.5103,-0.3587 c -0.1971,0 -0.3281,-0.1972 -0.3281,-0.4232 0,-0.2259 0.131,-0.4232 0.3281,-0.4232 h 5.2004 a 0.3962915,0.3962915 0 0 1 0.3585,0.4232 0.38732563,0.38732563 0 0 1 -0.3585,0.4232 z m -7.2623,6.6617 c 0.5254,-0.5523 0.7388,-0.6223 1.4453,-0.7514 v -11.3203 c -1.6479,0.1614 -1.4578,1.6874 -1.447,3.1058 0,0.1901 0,0.2905 0,0.3371 v 8.6288 z m 2.0622,-10.4417 h 15.4625 a 0.42318911,0.42318911 0 0 1 0.3049,0.1273 0.43036181,0.43036181 0 0 1 0.1273,0.3049 v 1.2552 h -0.798 v -0.9863 h -15.0967 v 9.2994 0 a 0.26180343,0.26180343 0 0 1 -0.2241,0.26 c -2.3527,0.3641 -2.4656,3.1542 -0.068,3.5541 h 15.389 v -1.1709 h 0.8015 v 1.5421 a 0.43215498,0.43215498 0 0 1 -0.1273,0.3049 v 0 a 0.43036181,0.43036181 0 0 1 -0.3048,0.1273 h -15.78 c -0.6455,0 -1.5403,-0.5057 -1.9151,-1.0401 -0.3747,-0.5343 -0.4913,-1.1888 -0.4608,-1.9671 v -10.1278 c 0,-1.734 -0.018,-3.6079 2.3975,-3.6509 h 0.032 a 0.26359661,0.26359661 0 0 1 0.26,0.2653 z m 15.6006,5.5427 a 1.4955073,1.4955073 0 1 1 -1.4955,1.4955 1.4955073,1.4955073 0 0 1 1.4955,-1.4955 z"
           id="path113737-4-4-9-5-2-27-1-9"
           style="fill:#ffffff;fill-opacity:1;fill-rule:evenodd;stroke:none;stroke-width:0.179317;stroke-opacity:1" /></g></g></g><style
     type="text/css"
     id="style82399"><![CDATA[
	.st0{fill:#4CAF50;}
	.st1{fill:#2196F3;}
	.st2{fill:#F44336;}
	.st3{fill:#262626;}
	.st4{fill:#FFD54F;}
	.st5{fill-rule:evenodd;clip-rule:evenodd;fill:#262626;}
	.st6{fill-rule:evenodd;clip-rule:evenodd;fill:#FFFFFF;}
]]></style></svg>
