<?xml version="1.0" encoding="UTF-8" standalone="no"?>
<!-- Created with Inkscape (http://www.inkscape.org/) -->

<svg
   width="112mm"
   height="112mm"
   viewBox="0 0 112 112"
   version="1.1"
   id="svg5"
   xml:space="preserve"
   inkscape:version="1.2.2 (b0a8486541, 2022-12-01)"
   sodipodi:docname="Logo_versuche.svg"
   xmlns:inkscape="http://www.inkscape.org/namespaces/inkscape"
   xmlns:sodipodi="http://sodipodi.sourceforge.net/DTD/sodipodi-0.dtd"
   xmlns="http://www.w3.org/2000/svg"
   xmlns:svg="http://www.w3.org/2000/svg"><sodipodi:namedview
     id="namedview7"
     pagecolor="#ffffff"
     bordercolor="#666666"
     borderopacity="1.0"
     inkscape:showpageshadow="2"
     inkscape:pageopacity="0.0"
     inkscape:pagecheckerboard="0"
     inkscape:deskcolor="#d1d1d1"
     inkscape:document-units="mm"
     showgrid="false"
     inkscape:zoom="0.35355339"
     inkscape:cx="13794.239"
     inkscape:cy="6594.4778"
     inkscape:window-width="1920"
     inkscape:window-height="1008"
     inkscape:window-x="1920"
     inkscape:window-y="0"
     inkscape:window-maximized="0"
     inkscape:current-layer="layer1"
     showguides="true" /><defs
     id="defs2"><style
       id="style83745">.cls-1{fill-rule:evenodd;}</style><style
       id="style113731">.cls-1{fill-rule:evenodd;}</style></defs><g
     inkscape:label="Ebene 1"
     inkscape:groupmode="layer"
     id="layer1"
     transform="translate(-3811.9591,-1753.8957)"><g
       id="g6052"
       transform="translate(-0.28657227,-1.2745361)"><rect
         style="opacity:0.00100002;fill:#ffffff;fill-opacity:1;stroke:none;stroke-width:3.51033;stroke-dasharray:none"
         id="rect26435-7-8-0-1-7-1-1-5-5-3-1-33-9-8"
         width="112"
         height="112"
         x="3812.2456"
         y="1755.1703"
         inkscape:export-filename="g23468-2.png"
         inkscape:export-xdpi="7.27"
         inkscape:export-ydpi="7.27" /><g
         id="g6033"
         transform="translate(-5.3441445)"><path
           style="fill:#ffffff;fill-opacity:1;stroke:#000000;stroke-width:4;stroke-linecap:butt;stroke-linejoin:miter;stroke-dasharray:none;stroke-opacity:1"
           d="m 3832.8525,1771.7404 41.6079,-14.4496 40.9115,14.6237 0.1741,44.0451 c -0.3709,22.5985 -23.3111,39.2654 -41.5208,48.7456 -33.5979,-17.1524 -42.1708,-36.5239 -42.3913,-49.9642 z"
           id="path8808-4-63-9-3-4-9-7-6-3-8-8-5"
           sodipodi:nodetypes="ccccccc" /><path
           style="fill:#c83a3a;fill-opacity:1;stroke-width:0.128452"
           id="path8688-45-8-6-7-37-3-3-7-4-7-1-6"
           sodipodi:type="arc"
           sodipodi:cx="3873.9719"
           sodipodi:cy="1774.8571"
           sodipodi:rx="5.4643841"
           sodipodi:ry="5.2864027"
           sodipodi:start="0"
           sodipodi:end="6.281029"
           sodipodi:open="true"
           sodipodi:arc-type="chord"
           d="m 3879.4363,1774.8571 a 5.4643841,5.2864027 0 0 1 -5.4614,5.2864 5.4643841,5.2864027 0 0 1 -5.4674,-5.2807 5.4643841,5.2864027 0 0 1 5.4556,-5.2921 5.4643841,5.2864027 0 0 1 5.4732,5.275 z" /><path
           style="fill:#c83a3a;fill-opacity:1;stroke-width:0.104987"
           id="path8688-4-2-5-0-1-3-8-5-3-7-0-7-1"
           sodipodi:type="arc"
           sodipodi:cx="3856.5693"
           sodipodi:cy="1781.0463"
           sodipodi:rx="4.5536532"
           sodipodi:ry="4.2377353"
           sodipodi:start="0"
           sodipodi:end="6.281029"
           sodipodi:open="true"
           sodipodi:arc-type="chord"
           d="m 3861.123,1781.0463 a 4.5536532,4.2377353 0 0 1 -4.5512,4.2377 4.5536532,4.2377353 0 0 1 -4.5561,-4.2332 4.5536532,4.2377353 0 0 1 4.5463,-4.2423 4.5536532,4.2377353 0 0 1 4.561,4.2286 z" /><path
           style="fill:#c83a3a;fill-opacity:1;stroke-width:0.105609"
           id="path8688-4-7-5-6-4-3-00-8-0-5-7-8-5-1"
           sodipodi:type="arc"
           sodipodi:cx="3891.3679"
           sodipodi:cy="1781.0946"
           sodipodi:rx="4.4601092"
           sodipodi:ry="4.3780518"
           sodipodi:start="0"
           sodipodi:end="6.281029"
           sodipodi:open="true"
           sodipodi:arc-type="chord"
           d="m 3895.828,1781.0946 a 4.4601092,4.3780518 0 0 1 -4.4577,4.3781 4.4601092,4.3780518 0 0 1 -4.4625,-4.3734 4.4601092,4.3780518 0 0 1 4.4529,-4.3827 4.4601092,4.3780518 0 0 1 4.4673,4.3686 z" /><path
           style="fill:none;stroke:#000000;stroke-width:4;stroke-linecap:butt;stroke-linejoin:miter;stroke-dasharray:none;stroke-opacity:1"
           d="m 3832.3122,1801.6183 h 83.3436"
           id="path10313-7-1-10-8-1-4-4-3-1-9-3-5" /><path
           id="path10367-43-15-4-0-5-3-1-5-6-9-8-98"
           style="fill:#c83a3a;fill-opacity:1;stroke-width:4.30101;stroke-dasharray:none"
           d="m 3856.6647,1787.0466 a 7.5,3.8820899 0 0 0 -7.4829,3.809 v 0 0.077 5.4389 h 15.0002 v -5.4431 -0.01 -0.065 h -0.01 a 7.5,3.8820899 0 0 0 -7.5076,-3.8091 z" /><path
           id="path10367-4-0-9-8-9-8-5-9-9-5-8-0-4"
           style="fill:#c83a3a;fill-opacity:1;stroke-width:5.65071;stroke-dasharray:none"
           d="m 3874.1276,1781.8614 a 10,5.0256577 0 0 0 -9.9818,4.9981 v 0 0.033 9.3684 h 20.0003 v -9.401 0 a 10,5.0256577 0 0 0 -10.0149,-4.9981 z" /><path
           id="path10367-5-7-84-7-7-0-0-4-5-5-4-7-8"
           style="fill:#c83a3a;fill-opacity:1;stroke-width:4.30101;stroke-dasharray:none"
           d="m 3891.5868,1787.0613 a 7.5,3.8820899 0 0 0 -7.4827,3.8091 v 0 0.077 5.4389 h 15.0002 v -5.443 -0.01 -0.064 0 a 7.5,3.8820899 0 0 0 -7.5076,-3.8091 z" /><path
           style="fill:#c83a3a;fill-opacity:1;stroke:none;stroke-width:0.264583px;stroke-linecap:butt;stroke-linejoin:miter;stroke-opacity:1"
           d="m 3838.3975,1806.8438 16.0735,-0.1323 c 1.7027,14.5868 9.3594,17.7355 17.661,19.6453 l -0.066,30.2287 c 0,0 -8.9959,-4.6302 -9.1943,-5.0271 -0.1984,-0.3969 0.1323,-20.5713 0.1323,-20.5713 -6.8077,-4.1235 -14.1567,-7.2418 -23.4156,-6.8131 -1.8609,-5.1113 -1.3116,-11.2099 -1.1907,-17.3302 z"
           id="path20055-8-8-0-9-0-5-1-9-4-2-7-1"
           sodipodi:nodetypes="ccccsccc" /><path
           style="fill:#c83a3a;fill-opacity:1;stroke:none;stroke-width:0.264583px;stroke-linecap:butt;stroke-linejoin:miter;stroke-opacity:1"
           d="m 3909.6915,1806.8158 -16.0735,-0.1323 c -1.7026,14.5867 -9.3593,17.7354 -17.6609,19.6453 l 0.066,30.2286 c 0,0 8.9958,-4.6302 9.1943,-5.027 0.1984,-0.3969 -0.1324,-20.5714 -0.1324,-20.5714 6.8077,-4.1235 14.1567,-7.2417 23.4156,-6.813 1.8609,-5.1113 1.3116,-11.2099 1.1907,-17.3302 z"
           id="path20055-9-6-10-8-9-0-9-4-7-6-6-3-0"
           sodipodi:nodetypes="ccccsccc" /><path
           style="fill:#c83a3a;fill-opacity:1;stroke:none;stroke-width:0.264583px;stroke-linecap:butt;stroke-linejoin:miter;stroke-opacity:1"
           d="m 3840.9772,1827.4482 c 6.2844,-0.1459 12.4889,1.4353 18.6531,5.6886 v 15.875 c -6.8378,-5.2006 -16.5249,-14.3492 -18.6531,-21.5636 z"
           id="path21800-8-3-6-3-4-3-3-9-8-8-4-3"
           sodipodi:nodetypes="cccc" /><path
           style="fill:#c83a3a;fill-opacity:1;stroke:none;stroke-width:0.264583px;stroke-linecap:butt;stroke-linejoin:miter;stroke-opacity:1"
           d="m 3907.2868,1827.5785 c -6.2844,-0.146 -12.489,1.4352 -18.6531,5.6885 v 15.875 c 6.8377,-5.2005 16.5248,-14.3492 18.6531,-21.5635 z"
           id="path21800-7-8-0-2-2-7-4-6-9-1-7-6-0"
           sodipodi:nodetypes="cccc" /><path
           style="fill:#ffffff;fill-opacity:1;stroke-width:3.96912;stroke-dasharray:none"
           id="path10311-4-4-4-4-5-6-4-0-0-8-5-4"
           sodipodi:type="arc"
           sodipodi:cx="3874.0662"
           sodipodi:cy="1807.1245"
           sodipodi:rx="19"
           sodipodi:ry="19"
           sodipodi:start="0"
           sodipodi:end="6.281029"
           sodipodi:open="true"
           sodipodi:arc-type="chord"
           d="m 3893.0662,1807.1245 a 19,19 0 0 1 -18.9898,19 19,19 0 0 1 -19.0102,-18.9795 19,19 0 0 1 18.9692,-19.0205 19,19 0 0 1 19.0307,18.959 z" /><path
           style="fill:#c83a3a;fill-opacity:1;stroke:none;stroke-width:4.15817;stroke-dasharray:none"
           id="path23528-4-7-3-3-2-2-2-89-9-5-4"
           sodipodi:type="arc"
           sodipodi:cx="3874.0662"
           sodipodi:cy="1807.1245"
           sodipodi:rx="14"
           sodipodi:ry="14"
           sodipodi:start="0"
           sodipodi:end="6.281029"
           sodipodi:open="true"
           sodipodi:arc-type="chord"
           d="m 3888.0662,1807.1245 a 14,14 0 0 1 -13.9925,14 14,14 0 0 1 -14.0075,-13.9849 14,14 0 0 1 13.9773,-14.0151 14,14 0 0 1 14.0226,13.9698 z" /><path
           style="fill:#ffffff;fill-opacity:1;stroke:none;stroke-width:0.264583px;stroke-linecap:butt;stroke-linejoin:miter;stroke-opacity:1"
           d="m 3869.3688,1801.6522 v 10.9447 l 9.3949,-5.4241 z"
           id="path23530-4-9-7-1-5-2-1-1-8-5-4" /></g></g></g><style
     type="text/css"
     id="style82399"><![CDATA[
	.st0{fill:#4CAF50;}
	.st1{fill:#2196F3;}
	.st2{fill:#F44336;}
	.st3{fill:#262626;}
	.st4{fill:#FFD54F;}
	.st5{fill-rule:evenodd;clip-rule:evenodd;fill:#262626;}
	.st6{fill-rule:evenodd;clip-rule:evenodd;fill:#FFFFFF;}
]]></style></svg>
